Coordinates
version=1
nRows=9
nColumns=24
inDegrees=yes

Units are S.I. units (second, meters, Newtons, ...)
Angles are in degrees.

endheader
time	pelvis_tilt	pelvis_list	pelvis_rotation	pelvis_tx	pelvis_ty	pelvis_tz	hip_flexion_r	hip_adduction_r	hip_rotation_r	knee_angle_r	ankle_angle_r	subtalar_angle_r	mtp_angle_r	hip_flexion_l	hip_adduction_l	hip_rotation_l	knee_angle_l	ankle_angle_l	subtalar_angle_l	mtp_angle_l	lumbar_extension	lumbar_bending	lumbar_rotation
      3.67500000	     -1.30659537	     -2.77380707	     -7.18657890	     -0.86173391	      0.91125457	      0.22901672	    -13.13431561	      7.43309098	      7.69926433	    -18.60685810	     23.77691701	     -5.15243876	      0.00000000	     29.20135859	     -2.32465264	     -5.07570357	     -8.44098788	     11.17337845	     -8.92573927	      0.00000000	    -10.67654159	      0.27124261	     -2.27182885
      3.68000000	     -1.34993139	     -2.63502748	     -7.20985649	     -0.85365002	      0.91007066	      0.22892101	    -13.23741662	      7.15087887	      7.34925077	    -19.28566819	     23.69224008	     -4.44395310	      0.00000000	     29.48215800	     -2.17327566	     -5.31466095	     -9.48668616	     11.04153691	     -9.06989036	      0.00000000	    -10.53201289	      0.05835951	     -2.27895213
      3.68500000	     -1.39862205	     -2.46062370	     -7.22667335	     -0.84550418	      0.90892463	      0.22880445	    -13.29214870	      6.82798827	      6.96227767	    -20.03238834	     23.55776202	     -3.71689846	      0.00000000	     29.75891786	     -1.98602573	     -5.53430385	    -10.57323556	     10.78460672	     -9.25073392	      0.00000000	    -10.37109573	     -0.19542785	     -2.30387186
      3.69000000	     -1.45473938	     -2.24747441	     -7.23144783	     -0.83735138	      0.90782699	      0.22866855	    -13.27600126	      6.46149512	      6.50689791	    -20.87638501	     23.38610876	     -2.93918766	      0.00000000	     30.03715231	     -1.75896537	     -5.71170759	    -11.68264945	     10.37983342	     -9.45688482	      0.00000000	    -10.19740689	     -0.49697929	     -2.34765480
      3.69500000	     -1.52097073	     -1.98013324	     -7.21420502	     -0.82914952	      0.90679678	      0.22849898	    -13.20384867	      6.04186917	      6.03075508	    -21.78520937	     23.12951104	     -2.17593462	      0.00000000	     30.31840176	     -1.47044960	     -5.87036965	    -12.79023466	      9.83088969	     -9.69618342	      0.00000000	     -9.99958023	     -0.85978613	     -2.41810481
      3.70000000	     -1.59972525	     -1.66664259	     -7.18006093	     -0.82097293	      0.90585069	      0.22829994	    -13.05034628	      5.57206802	      5.49623891	    -22.79061974	     22.79978173	     -1.37882998	      0.00000000	     30.61011079	     -1.13148578	     -5.98086028	    -13.88983946	      9.14429250	     -9.95659978	      0.00000000	     -9.78960912	     -1.27614828	     -2.51367372
      3.70500000	     -1.68968602	     -1.30665621	     -7.13904389	     -0.81285064	      0.90495808	      0.22806075	    -12.79541766	      5.04398897	      4.87905333	    -23.93049006	     22.42675754	     -0.54195454	      0.00000000	     30.92023138	     -0.73719177	     -6.00651262	    -14.99131289	      8.38475171	    -10.29948639	      0.00000000	     -9.57202864	     -1.74553291	     -2.64283873
      3.71000000	     -1.79330939	     -0.88466267	     -7.06371342	     -0.80473065	      0.90418191	      0.22779540	    -12.47243096	      4.46107559	      4.26695647	    -25.13896336	     21.92983290	      0.25129206	      0.00000000	     31.24522522	     -0.26748882	     -5.99616824	    -16.07491688	      7.53941710	    -10.64120082	      0.00000000	     -9.33442929	     -2.28877738	     -2.80247030
      3.71500000	     -1.90872339	     -0.42105705	     -6.96923488	     -0.79664731	      0.90350080	      0.22748568	    -12.06422145	      3.83019064	      3.62267863	    -26.45051945	     21.32841245	      1.04802254	      0.00000000	     31.58882340	      0.25904853	     -5.92892772	    -17.15783947	      6.67605180	    -11.02323770	      0.00000000	     -9.08759984	     -2.87890855	     -2.98089789
